<svg xmlns="http://www.w3.org/2000/svg" viewBox="0 0 5980 3441" xml:space="preserve"><path fill="#21201F" d="M5984 64c0 1106.798 0 2213.595-.895 3323.218-11.766 27.595-28.963 45.5-55.334 53.864-4.23 1.342-7.862 4.564-11.771 6.918-1942.798 0-3885.595 0-5831.369-.772-6.636-2.353-10.208-4.19-13.97-5.473-29.8-10.17-50.055-29.638-58.617-60.327-1.497-5.363-3.88-9.838-8.044-13.428C4 2273.202 4 1178.405 5.058 80.911c3.662-7.986 6.735-13.1 8.791-18.594C24.957 32.637 45.141 13.48 76.657 7.016 79.204 6.494 81.557 5.028 84 4c1941.464 0 3882.928 0 5827.492.654 5.645 1.403 8.163 2.262 10.738 2.886 27.681 6.708 48.257 21.692 58.02 49.452.87 2.47 2.482 4.678 3.75 7.008M62.217 192.949c-1.104.645-1.747 1.602-2.406 2.836 0 0-.164.448-2.073.602-1.311.56-2.023 1.55-4.158 3.972-1.754 1.42-3.509 2.838-8.524 4.176l-9.772 1.569c-3.884 9.464-2.095 18.904-2.096 28.073-.11 995.728-.117 1991.456-.127 2987.183 0 5.998-.207 12.01.12 17.99.207 3.76 1.231 7.475 2.078 12.285 4.802 0 8.706 0 15.164.96 6.563 6.144 13.184 12.23 19.671 18.453 4.588 4.401 8.996 8.988 14.875 15.446 3.208 1.446 6.215 2.517 5.99-6.707.026-5.999.076-11.997.076-17.996-.002-1021.791-.006-2043.583-.03-3065.374 0-6.659-.282-13.318.387-22.507-.25-3.436-1.194-6.551-5.432-4.346-2.556 1.33-4.487 3.862-8.704 7.026-1.835 2.415-3.671 4.83-7.063 8.178-1.044.78-1.581 1.82-2.12 3.243 0 0-.115.51-1.845.952-1.114.686-1.68 1.683-2.186 3.085 0 0-.095.487-1.825.9M5812.072 75.934s-.129-.058-1.12-2.116c-1.994-.911-3.987-1.822-7.45-3.059 0 0-1.333.7-2.038-1.399-.296-.676-.59-1.353-1.038-4.594-1.617-3.55-4.493-4.94-8.317-4.868 0 0-.036-.074.22-2.487-1.41-1.87-2.821-3.738-4.972-7.214 0 0-.697-1.627-.275-4.78l-3.127-13.64c-10.62-2.288-20.607-1.353-30.484-1.353-1833.622-.02-3667.244.006-5500.867.032-9.331 0-18.668-.158-27.991.124-3.836.116-7.642 1.2-11.373 1.83-1.614 4.56-2.941 8.308-5.14 13.734 0 0 .11 1.89-1.917 3.577-6.732 7.044-13.463 14.089-22.314 22.25-2.084 2.42-4.169 4.84-8.633 7.844l-6.142 7.757h23.9c1867.343 0 3734.685 0 5602.027-.02 7.324 0 14.648-.308 23.917-.972 1.501-3.202.132-5.216-2.741-6.767 0 0-.156-.017-.877-1.793-.768-1.13-1.829-1.783-3.248-2.086M43.449 3265.113c-6.74-2.02-7.107-1.877-10.225 7.365-.036 26.602-.2 53.203-.057 79.804.077 14.092 1.668 27.905 11.68 42.076 7.939 8.655 15.497 17.805 30.593 22.4 7.07 1.188 14.13 3.317 21.214 3.4 30.904.367 61.815.172 92.722.056 2.28-.009 4.557-1.015 8.572-1.972-2.558-3.403-3.97-5.282-6.463-9.574l-48.168-47.444c-2.901-.368-5.507-.717-8.117-1.025-17.604-2.079-22.917-6.565-25.43-24.44-1.01-7.18-3.974-12.23-8.846-17.02-15.14-14.882-30.037-30.008-45.2-44.865-2.215-2.17-5.366-3.386-9.64-5.667 0 0-1.51-.73-2.635-3.095m5907.286-3068.91c3.146-.246 7.043.546 9.223-1.034 2.15-1.558 3.566-5.509 3.585-8.421.209-32.91.314-65.824-.1-98.73-.107-8.493-2.068-16.98-7.886-26.781-13.44-22.756-33.967-32.379-59.761-32.339-26.51.041-53.022-.009-79.533.035-3.302.006-6.95-.468-9.803.759-2.651 1.14-5.46 3.903-6.4 6.582-1.544 4.397-1.351 9.221 4.464 14.741 16.35 16.525 32.715 33.036 49.04 49.585 4.246 4.304 8.584 7.377 15.188 8.304 19.357 2.719 23.39 7.014 26.344 26.124.738 4.771 1.596 9.034 5.186 12.468 14.349 13.725 28.655 27.495 44.003 43.363.63.465 1.259.93 1.742 2.455.352.797.946 1.07 4.708 2.89m-16.288 3215.194c6.494-5.917 14.446-10.53 19.912-21.112 6.807-11.11 9.53-23.199 9.43-36.19-.202-26.65-.027-53.303-.11-79.955-.01-3.158-.67-6.314-.97-8.96-6.562-3.15-11.228-2.507-17.149 3.812l-56.677 58.907c.082-.476-.321 1.47-.572 3.435-.167 1.312.003 2.67-.183 3.978-2 14.036-7.384 20.022-20.944 22.662-5.769 1.123-11.923.3-16.63 5.217-14.202 14.835-28.575 29.506-45.638 45.686-2.22 2.991-6.3 5.393-3.194 10.077 1.161.416 2.322 1.192 3.485 1.195 32.904.09 65.809.14 98.713.101 10.104-.011 19.454-2.782 30.527-8.853M197.473 36.817c.19-6.177-3.561-7.906-8.883-7.904-31.217.011-62.443-.405-93.646.248-11.077.231-22.559 1.73-33.735 11.188-3.213 3.059-6.426 6.118-11.95 10.338-11.733 12.262-16.097 27.405-16.28 43.82-.305 27.302-.109 54.611-.086 81.918.002 2.655.033 5.349.456 7.96.925 5.718 6.334 8.958 12.015 6.582 2.813-1.175 4.873-4.149 9.631-7.559 12.185-12.204 24.242-24.54 36.606-36.558 6.385-6.207 10.337-12.74 11.252-22.21 1.335-13.83 7.69-19.577 22.021-20.938 7.97-.757 13.672-3.782 18.924-9.254 8.266-8.612 16.94-16.834 25.21-25.443 9.139-9.514 18.015-19.279 28.465-32.188m3798.29 3383.326c5.326.03 10.654.084 15.98.085q691.236.053 1382.47.095c123.196.008 246.393.04 369.59-.103 7.11-.008 14.607 1.95 21.43-2.067 1.197-3.3 2.328-6.42 5.665-10.413 1.803-2.59 3.606-5.18 7.61-9.17l8.057-12.316c-10.863-3.05-20.153-1.766-29.231-1.767-1853.106-.071-3706.212-.068-5559.318-.066-6 0-12.006-.147-17.995.112-3.064.132-6.097 1.012-9.932 1.695 2.047 6.668 4.92 10.833 11.008 15.624 2.145 2.196 4.29 4.393 7.712 9.537l5.36 8.933h21.859c479.319-.029 958.638-.056 1437.957-.115 7.318-.001 14.637-.408 25.65.074 2.663.038 5.328.108 7.992.108 755.504.005 1511.008.007 2266.512-.028 5.973 0 11.947-.51 21.623-.218m1940.005-160.033c3.536-3.717 5.72-8.76 12.167-9.21 5.095-.358 10.08-2.28 15.872-3.69V241.58c0-5.331.148-10.669-.051-15.993-.166-4.416-.742-8.816-1.212-14.078-14.676 2.227-22.585-7.625-32.648-16.826l-11.06-9.093c-1.081 3.093-2.26 4.89-2.26 6.686q.031 1539.236.315 3078.47c0 1.007 1.342 2.014 2.558 3.725 6.367-2.147 10.89-6.497 16.319-14.361M3634 96.05q-1717.926 0-3435.853.003c-9.333 0-18.666.146-27.998.053-6.976-.07-13.25 1.583-18.118 6.83-5.716 6.16-12.635 8.798-21.032 10.016-13.163 1.909-15.932 5.514-17.985 19.848-.862 6.016-1.18 12.047-5.786 16.577-6.307 6.202-7.031 14.03-6.954 22.186.05 5.333-.021 10.666-.021 16q-.002 1540.935 0 3081.869c0 5.333.258 10.678-.018 15.996-.48 9.207 2.205 16.899 9.146 23.255 6.04 5.533 9.406 12.364 10.765 20.79 2.485 15.411 3.889 16.539 20.61 18.59 7.151.877 12.576 3.686 17.242 8.83 2.683 2.959 5.715 5.598 8.463 8.502 4.868 5.144 10.788 7.556 17.855 7.496 7.998-.068 15.998.074 23.998.074q2789.88.005 5579.763.004c5.333 0 10.702-.403 15.992.074 12.185 1.101 22.206-2.372 30.072-12.094 6.928-8.562 15.162-14.32 27.176-14.31 9.108.008 14.897-6.011 15.26-15.336.456-11.689 6.496-19.957 14.605-27.375 2.947-2.696 5.57-5.746 8.482-8.484 5.161-4.854 7.608-10.768 7.583-17.827-.03-7.999.113-15.998.113-23.997q.007-1523.935.006-3047.871c0-5.333-.436-10.708.079-15.99 1.204-12.346-2.984-22.12-12.614-29.846-7.03-5.64-10.857-12.588-11.556-22.15-.96-13.143-3.862-15.88-16.973-17.87-8.31-1.261-16.091-3.432-21.06-10.047-9.68-12.886-22.74-14.904-37.338-13.857-5.306.38-10.662.06-15.995.06z"/><path fill="#C8C7C9" d="M48.317 204.616c1.754-1.419 3.509-2.838 7.161-4.942 3.014-1.307 3.771-2.226 4.169-3.441 0 0 .164-.448 1.292-.595 2.293-.79 2.92-1.775 3.008-3.103 0 0 .095-.487 1.193-.764 2.197-.963 2.77-1.954 2.818-3.25 0 0 .115-.51 1.256-.902 2.254-1.255 2.72-2.386 2.535-3.784 1.836-2.415 3.672-4.83 7.927-8.109 5.246-.337 8.071.188 10.897.714.15 6.66.431 13.318.431 19.977.025 1021.791.03 2043.583.031 3065.374 0 5.999-.05 11.997-1.434 19.878-2.912 2.213-4.467 2.542-6.023 2.872-4.488-4.505-8.896-9.092-13.484-13.493-6.487-6.223-13.108-12.309-21.122-20.776-1.606-10.982-1.896-19.643-1.896-28.304.008-137.306.085-274.613.084-411.92-.008-857.166-.037-1714.333 0-2571.5 0-11.31.754-22.621 1.157-33.932"/><path fill="#909697" d="m208.972 44.465 4.268-12.057c3.73-.629 7.537-1.713 11.373-1.83 9.323-.28 18.66-.123 27.991-.123 1833.623-.026 3667.245-.051 5500.867-.032 9.877 0 19.863-.935 30.484 1.353 1.11 4.84 2.118 9.24 1.14 14.96-5.29 1.013-8.591.439-11.892.441-61.752.039-123.504.146-187.123.115-84.874-.108-167.88-.14-250.887-.06-65.076.06-130.152.26-197.097.254-45.78-.149-89.69-.184-133.601-.154-238.851.164-477.702.345-718.42.436-22.531-.113-43.195-.185-63.859-.138-5.324.013-10.839-.419-15.935.773-15.15 3.542-30.468 2.876-45.775 2.882-267.965.098-535.93.167-803.894.278-8.657.004-17.585-.893-25.915.865-15.884 3.352-31.8 2.918-47.768 2.952-31.329.067-62.659-.085-93.987.112-7.957.05-15.915 1.002-23.862 1.665-7.941.662-15.87 2.131-23.804 2.136-200.64.121-401.28.104-601.92.06-5.984 0-12.204.406-17.905-1.016-13.164-3.284-26.446-2.892-39.76-2.92-17.997-.036-35.996.125-53.991-.06-15.907-.163-31.82-.438-47.71-1.121-12.598-.542-25.166-2.57-37.748-2.586-181.31-.222-362.619-.23-543.928-.258-96.652-.015-193.305.03-291.32-.065-3.181-.187-5-.26-8.21-1.07-11.175-1.275-20.961-1.813-32.625-2.392-276.642-.221-551.408-.404-826.174-.565-6.65-.004-13.3.232-21.825.254-28.492-.14-55.11-.206-81.726-.21-107.798-.015-215.596-.011-323.986-.607-1.52-1.207-2.483-1.767-3.476-2.272"/><path fill="#CBCACD" d="M5930.673 196.722c9.285 7.162 17.194 17.014 31.87 14.787.47 5.262 1.046 9.662 1.212 14.078.199 5.324.05 10.662.05 15.993v3005.63c-5.79 1.41-10.776 3.332-15.871 3.69-6.446.45-8.63 5.493-14.332 8.682-7.549-9.816-5.554-20.047-5.557-29.893-.088-365.905-.046-731.81-.048-1097.715-.003-611.174-.025-1222.35-.022-1833.524 0-8.661-.862-17.502.541-25.95 4.187-25.219 2.64-50.49 2.157-75.778"/><path fill="#6B797B" d="M199.897 3399.795c-4.889-2.734-7.76-6.899-9.808-13.567 3.835-.683 6.868-1.563 9.932-1.695 5.989-.259 11.996-.112 17.995-.112 1853.106-.002 3706.212-.005 5559.318.066 9.078 0 18.368-1.282 29.231 1.767-3.292 5.033-5.675 8.675-10.139 11.798-7.705-4.924-14.412-5.172-21.09-5.34-5.997-.15-12-.133-17.998-.08-147.284 1.296-294.598-2.832-441.86 2.485-1031.958.315-2063.918.685-3095.877.911-317.987.07-635.976.295-953.961-.548-318.614-.845-637.24 2.663-955.841-2.77-26.658-.455-53.33-.102-79.996-.064-5.328.008-10.68.026-15.978.516-5.35.495-10.6 1.674-13.928 6.633"/><path fill="#ADB4B6" d="M200.497 3400.824c2.729-5.988 7.979-7.167 13.328-7.662 5.298-.49 10.65-.508 15.978-.516 26.666-.038 53.338-.391 79.996.063 318.6 5.434 637.227 1.926 955.84 2.77 317.986.844 635.975.619 953.962.55 1031.96-.227 2063.919-.597 3095.878-.912 147.26-5.317 294.575-1.189 441.859-2.485 5.999-.053 12.001-.07 17.998.08 6.678.168 13.385.416 19.99 6.04-.822 3.808-2.625 6.398-6.906 8.384-9.639-1.55-16.8-3.322-23.962-3.323-241.483-.028-482.966.112-726.323.135-122.992-.09-244.111-.09-365.23-.08-48.58.003-97.162-.01-145.742.09-7.897.016-16.084-1.217-25.099 3.72-11.834.02-21.798.064-31.761.071-159.416.118-318.833.231-480.122.251-9.867-.142-17.86-.232-25.854-.232-747.467-.008-1494.934-.01-2242.4.003-8.659 0-17.317.206-27.845.273-164.587-.148-327.304-.254-491.445-1.197-9.992-1.535-18.56-2.837-27.127-2.845-221.157-.191-442.314-.25-663.47-.318-6.66-.002-13.32.136-21.86.179a557366 557366 0 0 0-243.782-.172c-7.996-.004-15.993.054-23.99.076-5.445.015-10.63.847-14.877 4.674-2.144-2.196-4.29-4.393-7.034-7.617"/><path fill="#909697" d="M46.687 204.575c1.227 11.352.473 22.662.472 33.973-.036 857.167-.007 1714.334.001 2571.5.001 137.307-.076 274.614-.084 411.92 0 8.66.29 17.322.619 27.824-3.73 1.843-7.634 1.843-12.436 1.843-.847-4.81-1.871-8.525-2.077-12.285-.328-5.98-.121-11.992-.12-17.99.01-995.727.016-1991.455.126-2987.183 0-9.169-1.788-18.61 2.096-28.073 3.306-.531 6.54-1.05 11.403-1.529"/><path fill="#BEBFC1" d="M4287.943 47.853c238.85-.176 477.701-.357 716.552-.521 43.91-.03 87.821.005 132.954 1.59-2.142 6.92-7.593 6.887-12.936 7.007-9.311.209-18.929-1.101-27.876.789-19.161 4.046-38.397 2.894-57.645 3.349-7.286.172-14.558 1.034-21.83 1.672-7.926.695-15.836 2.034-23.766 2.144-21.958.303-43.924.095-65.887.13-5.322.008-10.654-.002-15.962.314-5.413.323-9.334 3.229-8.59 6.155 1.254 4.93 5.57 5.087 9.497 5.436 3.306.293 6.65.218 9.976.217 123.125-.038 246.25-.086 371.269-.062 27.092.106 52.29.166 77.488.163 7.264 0 14.686.638 22.866-4.049 13.797-.039 25.795-.074 39.677-.078 115.443.051 229.002.085 342.561.056 8.626-.003 17.252-.46 25.878-.707 0 0 1.333-.7 2.212.674 3.106 2.164 5.334 2.953 7.562 3.743 0 0 .129.058.38 1.115.566 1.659.881 2.26-.27 3.836-10.04 1.68-18.612 3.003-27.183 3.004-420.314.069-840.628.03-1260.942-.05-10.558-.002-21.336 1.391-31.218-4.444-2.015-1.19-5.29-1.116-7.74-.558-14.657 3.34-29.034 2.089-43.518-1.294-5.095-1.19-10.598-.817-15.917-.84-19.983-.086-39.966.008-59.95-.065-10.683-.038-21.017.62-31.35 4.53-12.057 4.562-25.476 5.054-37.249.4-11.066-4.374-21.906-4.894-33.19-4.916-19.983-.04-39.966-.02-59.95-.02-9.32 0-18.539-.218-27.206 4.613-6.043 3.368-13.367 3.912-19.333.677-11.26-6.107-23.159-5.244-35.09-5.29-13.988-.056-27.98-.222-41.963.075-6.613.14-13.361.568-19.78 2.037-26.97 6.172-54.01 6.415-81.377 3.137-9.778-1.172-19.86.255-29.805.384-9.93.128-19.864.218-29.794.137-11.933-.096-23.925-1.206-35.774-.315-8.14.611-15.899.976-23.554-1.942-12.407-4.73-24.545-3.86-37.119.09-16.89 5.305-33.99 5.661-50.886-.948-3.654-1.43-7.77-2.518-11.638-2.42-25.146.643-50.659-3.966-75.27 5.073-3.062 1.124-6.547 1.597-9.824 1.551-33.916-.476-67.881 2.528-101.762-1.923-7.785-1.023-15.991-.407-23.805.772-8.896 1.343-17.147.947-25.27-3.057-2.956-1.456-6.29-2.144-8.555-4.531 4.355-3.039 7.677-5.661 11.309-6.204 5.872-.878 11.95-.465 17.94-.467 137.84-.031 275.68-.037 413.52-.086 7.318-.003 14.919.863 21.899-.769 16.481-3.854 33.078-3.107 49.69-3.162 25.97-.086 51.94.042 77.91-.089 6.638-.033 13.281-.588 19.908-1.097 11.24-.865 22.451-2.34 33.703-2.73 16.628-.574 33.55 1.378 49.851-1.06 17.952-2.686 35.756-2.824 53.693-3.078 4.651-.066 9.32-.176 13.939-.669 4.398-.47 6.992-3.456 8.54-7.43m465.135 28.277c7.367-.838 15.448 1.994 23.492-3.94-2.9-1.787-4.403-3.518-5.9-3.514-21.223.06-42.447.328-63.667.722-.634.011-1.232 1.933-2.563 4.163 15.043 4.893 30.17 1.513 48.638 2.569"/><path fill="#C0A6A7" d="M3515.145 76.042c3.161 1.038 6.495 1.726 9.45 3.182 8.124 4.004 16.375 4.4 25.271 3.057 7.814-1.18 16.02-1.795 23.805-.772 33.88 4.45 67.846 1.447 101.762 1.923 3.277.046 6.762-.427 9.823-1.551 24.612-9.039 50.125-4.43 75.271-5.073 3.869-.098 7.984.99 11.638 2.42 16.895 6.61 33.997 6.253 50.886.947 12.574-3.95 24.712-4.819 37.12-.089 7.654 2.918 15.412 2.553 23.553 1.942 11.849-.891 23.841.22 35.774.315 9.93.08 19.864-.01 29.794-.137 9.945-.129 20.027-1.556 29.805-.384 27.368 3.278 54.408 3.035 81.376-3.137 6.42-1.47 13.168-1.896 19.781-2.037 13.982-.297 27.975-.13 41.963-.076 11.931.047 23.83-.816 35.09 5.29 5.966 3.236 13.29 2.692 19.333-.676 8.667-4.831 17.886-4.614 27.207-4.613 19.983 0 39.966-.02 59.95.02 11.283.022 22.123.542 33.19 4.917 11.772 4.653 25.19 4.16 37.248-.402 10.333-3.91 20.667-4.567 31.35-4.529 19.984.073 39.967-.02 59.95.065 5.319.023 10.822-.35 15.917.84 14.484 3.383 28.861 4.635 43.518 1.294 2.45-.558 5.725-.632 7.74.558 9.882 5.835 20.66 4.442 31.218 4.444 420.314.08 840.628.119 1260.942.05 8.571-.001 17.143-1.324 27.809-2.958 2.093-.929 3.362-1.077 3.362-1.077s.156.017.208 1.29c.282 2.846.513 4.42.744 5.993-7.324.165-14.648.473-21.972.473-1867.342.02-3734.684.02-5602.027.02h-23.9c3.095-3.91 4.618-5.833 8.848-7.049 10.588 1.475 18.469 2.909 26.35 2.91 291.518.063 583.036-.003 874.554-.077 5.983-.002 11.971-.186 17.947-.49 4.38-.222 7.306-2.796 10.918-6.457 51.633.141 101.632.052 151.628.322 8.578.046 17.452.514 25.647 2.762 11.093 3.042 22.12 4.72 33.528 4.31 37.872-1.357 75.82-1.415 113.469-6.663 3.94-.55 7.98-.509 11.975-.523 16-.059 32.014-.44 47.992.14 7.853.284 15.81 1.774 23.418 3.834 14.492 3.925 28.603 5.477 42.88-.957 4.112-1.854 8.973-2.878 13.487-2.863 15.937.053 31.888-1.349 47.78 2.45 6.872 1.644 14.509.497 21.762.044 9.93-.621 19.806-2.167 29.738-2.628 12.642-.586 25.317-.484 39.349.082 8.75 4.35 16.92 4.805 24.332 2.974 18.667-4.612 37.56-2.814 58.28-3.565 20.564.1 38.876 1.585 57.313 5.48 20.156 4.259 41.278 4.778 61.363-.585 21.215-5.664 41.795-5.773 62.976-.848 9.624 2.237 19.706 3.29 29.601 3.428 30.603.428 61.216.114 91.824.18 11.348.024 22.385-.492 33.28-4.897 5.9-2.386 13.03-2.142 19.625-2.316 15.959-.422 31.93-.392 49.717-.484 101.547.082 201.274.011 301.001.25 11.882.029 23.752 1.852 35.642 2.627 4.596.3 9.247.233 13.845-.08 11.227-.761 22.43-2.395 33.657-2.548 30.577-.417 61.163-.25 93.004.577 4.191 1.632 7.124 2.371 11.548 3.227 6.07.922 10.633 2.236 15.235 2.39 4.518.153 9.707.35 13.498-1.608 12.157-6.28 24.363-5.268 36.941-2.442 7.135 1.603 14.308 3.258 21.556 4.089 14.525 1.664 28.897 3.043 43.05-3.687 5.652-2.688 12.965-2.534 19.527-2.557 51.24-.187 102.501-.91 153.715.296 20.477.482 40.765 1.188 61.29-.04 25.199-1.507 50.56-.652 75.84-.186 7.83.144 15.853 1.557 23.386 3.763 20.998 6.15 42.097 3.895 63.257 2.01 15.604-7.984 32.452-5.914 48.991-5.784 5.208.042 10.941.533 15.505 2.74 13.55 6.552 27.191 5.954 40.79 1.588 10.974-3.522 22.009-4.635 33.408-4.555q39.927.28 79.856.002c12.054-.083 23.917.398 35.345 4.828 7.772 3.013 15.332 2.272 23.328-.439 7.41-2.511 15.477-3.08 23.255-4.504"/><path fill="#9B9A9D" d="M5930.284 195.703c.872 26.307 2.42 51.578-1.768 76.797-1.403 8.448-.541 17.289-.541 25.95-.003 611.175.02 1222.35.022 1833.524.002 365.905-.04 731.81.048 1097.715.003 9.846-1.992 20.077 4.46 30.847-2.166 7.438-6.69 11.788-13.057 13.935-1.216-1.71-2.558-2.718-2.558-3.724q-.283-1539.236-.316-3078.47c0-1.797 1.18-3.594 2.261-6.687 4.13 3.395 7.595 6.244 11.45 10.113"/><path fill="#CBCACD" d="M1695.951 3408.086c8.659-.11 17.317-.315 25.976-.315 747.466-.013 1494.933-.011 2242.4-.003 7.994 0 15.987.09 25.852 1.666 1.874 4.4 1.877 7.273 1.88 10.145-5.973.272-11.947.782-17.92.782-755.504.035-1511.008.033-2266.512.028-2.664 0-5.329-.07-9.814-1.895-1.835-4.661-1.848-7.535-1.862-10.408"/><path fill="#D7D9DA" d="M3993.91 3419.86c-1.854-3.153-1.857-6.025-1.858-10.331 159.418-1.549 318.835-1.662 478.25-1.78 9.964-.007 19.928-.05 33.142.875 11.114 1.756 18.976 3.258 26.84 3.263 161.024.111 322.047.057 483.07 0 5.978-.002 11.971-.152 17.927-.626 4.379-.348 7.074-3.29 8.727-7.22 241.484-.116 482.967-.256 724.45-.228 7.162.001 14.323 1.773 22.86 3.758.243 4.161-.888 7.283-2.085 10.582-6.823 4.016-14.32 2.06-21.43 2.067-123.197.143-246.394.11-369.59.103q-691.234-.042-1382.47-.095c-5.326 0-10.654-.056-17.832-.367m-2299.829-11.817c1.883 2.915 1.896 5.789 1.884 10.1-7.344 1.655-14.663 2.062-21.981 2.063-479.32.059-958.638.086-1437.957.116h-21.86c-1.978-3.298-3.668-6.116-5.998-10.408 3.608-5.301 8.793-6.133 14.239-6.148 7.996-.022 15.993-.08 23.99-.076 80.634.042 161.269.093 244.458 1.569 5.339 3.026 7.986 5.605 10.937 6.02 5.89.829 11.949.586 17.938.587 219.103.053 438.206.083 657.308.105 5.326 0 10.719.349 15.955-.375 3.797-.525 7.385-2.555 11.066-3.914 162.717.107 325.434.213 490.021.361"/><path fill="#C8C7C9" d="M213.04 47.33c107.798.003 215.596-.001 323.394.014 26.617.004 53.234.07 82.332 1.61 4.538 3.054 6.469 5.73 8.674 5.98 16.453 1.868 32.622 5.973 49.432 5.218 13.926-.625 28.243-1.768 41.8.634 23.202 4.112 46.373 2.584 69.57 3.26 8.613.25 17.22.888 25.817 1.532 9.246.692 18.474 2.267 27.714 2.302 58.513.223 117.027.11 175.54.16 5.975.005 11.964.153 17.916.617 4.366.34 7.084 3.268 6.957 7.191-180.268.065-358.658.081-537.049.024-5.966-.002-11.937-.68-17.898-1.152-10.576-.837-21.143-2.493-31.718-2.524-79.876-.238-159.752-.124-239.629-.237-9.968-.014-19.936-.72-29.904-1.105 6.732-7.045 13.463-14.09 22.42-22.122 3.028-1.126 3.83-1.264 4.632-1.403"/><path fill="#9B9A9D" d="M51.57 49.526c3.213-3.06 6.426-6.118 12.829-9.389 45.998-.163 88.806-.115 131.615-.066-8.99 9.655-17.867 19.42-27.005 28.934-8.27 8.61-16.945 16.83-25.211 25.443-5.252 5.472-10.954 8.497-18.924 9.254-14.331 1.36-20.686 7.109-22.021 20.938-.915 9.47-4.867 16.003-11.252 22.21-12.364 12.019-24.421 24.354-37.862 35.274-1.25-21.848-1.124-42.414-1.274-62.978-.169-23.208-.586-46.414-.895-69.62m-3.93 3219.305c2.718 1.657 5.87 2.873 8.085 5.043 15.162 14.857 30.06 29.983 45.199 44.865 4.872 4.79 7.837 9.84 8.846 17.02 2.513 17.875 7.826 22.361 25.43 24.44 2.61.308 5.216.657 8.117 1.025 16.046 15.805 32.107 31.625 46.812 48.698-33.964 1.219-66.574 1.1-99.182 1.22-6.454.023-13.515-1.549-18.63 4.461-11.973-3.44-19.531-12.59-26.84-23.909 1.156-9.84 2.105-17.015 2.137-24.194.149-32.89.04-65.78.025-98.669M5943.26 188.743c-14.323-13.753-28.63-27.523-42.978-41.248-3.59-3.434-4.448-7.697-5.186-12.468-2.955-19.11-6.987-23.405-26.344-26.124-6.604-.927-10.942-4-15.189-8.304-16.324-16.55-32.689-33.06-47.65-51.06 39.873-1.55 78.363-1.287 116.838-1.901 12.182-.195 20.667 3.084 23.86 17.273-1.001 37.295-1.678 72.716-2.436 108.134-.112 5.237-.601 10.466-.915 15.698m8.661 3203.107c-3.028 9.016-10.98 13.63-20.045 18.667-9.83-1.43-17.084-2.385-24.349-2.46-33.283-.343-66.57-.44-99.855-.626 14.307-14.734 28.68-29.405 42.882-44.24 4.707-4.917 10.861-4.094 16.63-5.217 13.56-2.64 18.944-8.626 20.944-22.662.186-1.308.016-2.666.183-3.978.251-1.965.654-3.91.572-3.435 19.858-20.639 38.267-39.773 58.437-57.402 1.89 33.672 1.868 65.841 2.254 98.006.094 7.79 1.53 15.566 2.347 23.348"/><path fill="#D7D9DA" d="M184.929 71.412c11.027-.173 20.995.533 30.963.547 79.877.113 159.753-.001 239.629.237 10.575.031 21.142 1.687 31.718 2.524 5.96.472 11.932 1.15 17.898 1.152 178.39.057 356.78.041 538.91.019 23.169.123 42.599.265 62.028.407-1.976 3.77-4.903 6.345-9.282 6.567-5.976.304-11.964.488-17.947.49-291.518.074-583.036.14-874.554.077-7.881-.001-15.762-1.435-25.16-3.201.568-3.42 2.653-5.84 5.797-8.819"/><path fill="#CBCACD" d="M5801.816 70.409c-8.273 1.295-16.899 1.753-25.525 1.756-113.559.03-227.118-.005-341.827-1.443 2.895-7.23 9.1-6.627 14.966-6.664 17.14-.109 34.284.05 51.424-.121 6.57-.066 13.145-.64 19.702-1.168 10.47-.843 20.914-2.081 31.395-2.695 7.887-.461 15.818-.146 23.726-.285 8.042-.142 11.955-4.505 12.27-12.373 61.752-.093 123.504-.2 185.256-.239 3.3-.002 6.602.572 11.68 1.134 1.777.258 2.474 1.885 2.743 3.964 1.662 3.902 3.055 5.725 4.447 7.548 0 0 .036.074.236 1.335 2.89 2.898 5.58 4.535 8.27 6.172.295.676.59 1.353 1.237 3.079m145.094-7.373c-3.492-12.314-11.977-15.593-24.159-15.398-38.475.614-76.965.351-117.335.66-6.707-2.804-6.9-7.628-5.356-12.025.94-2.68 3.749-5.442 6.4-6.582 2.852-1.227 6.5-.753 9.803-.759 26.51-.044 53.022.006 79.533-.035 25.794-.04 46.321 9.583 58.428 33.603-3.328 1.021-5.321.779-7.314.536M50.414 50.106c1.465 22.626 1.882 45.832 2.051 69.04.15 20.564.023 41.13.096 63.604-2.324 4.068-4.384 7.042-7.197 8.217-5.68 2.376-11.09-.864-12.015-6.583-.423-2.61-.454-5.304-.456-7.96-.023-27.306-.22-54.615.085-81.918.184-16.414 4.548-31.557 17.436-44.4"/><path fill="#D7D9DA" d="M5946.611 64.911c2.292-1.632 4.285-1.39 7.776-1.053 6.988 7.18 8.95 15.666 9.056 24.159.414 32.906.309 65.82.1 98.73-.019 2.912-1.434 6.863-3.585 8.421-2.18 1.58-6.077.788-10.791-.436-1.568-1.472-2.993-2.48-2.993-2.48-.63-.465-1.26-.93-2.402-2.451-.198-6.29.291-11.519.403-16.756.758-35.418 1.435-70.839 2.436-108.134m6.529 3326.157c-2.036-7-3.472-14.775-3.566-22.565-.386-32.165-.365-64.334-.948-98.305 2.855-7.525 7.521-8.168 14.083-5.018.3 2.646.96 5.802.97 8.96.083 26.652-.092 53.305.11 79.956.1 12.99-2.623 25.08-10.649 36.972M46.861 3268.519c.794 33.202.902 66.092.753 98.98-.032 7.18-.981 14.355-2.431 22.876-10.348-10.188-11.94-24.001-12.016-38.093-.143-26.6.02-53.202 1.685-81.914 4.326-2.37 7.024-2.63 9.721-2.89 0 0 1.51.729 2.288 1.04m5759.433 139.636c34.663-.537 67.95-.44 101.233-.097 7.265.075 14.52 1.03 23.03 2.663-7.183 6.748-16.533 9.519-26.637 9.53-32.904.038-65.809-.011-98.713-.1-1.163-.004-2.324-.78-3.491-1.2-3.1-4.68.98-7.082 4.578-10.796"/><path fill="#C8C7C9" d="M196.743 38.444c-43.538 1.578-86.346 1.53-131.03 1.384 6.672-8.936 18.154-10.436 29.231-10.667 31.203-.653 62.429-.237 93.646-.248 5.322-.002 9.074 1.727 8.153 9.531"/><path fill="#D7D9DA" d="M73.878 3416.18c3.554-6.587 10.615-5.015 17.069-5.039 32.608-.12 65.218 0 99.723-.013 3.308 1.832 4.72 3.711 7.278 7.114-4.015.957-6.292 1.963-8.572 1.972-30.907.116-61.818.31-92.722-.055-7.084-.084-14.143-2.213-22.776-3.979"/><path fill="#9B9A9D" d="M90.983 175.175c-3.236.74-6.06.214-10.304-.035.794-1.714 2.725-4.246 5.28-5.576 4.24-2.205 5.183.91 5.024 5.61"/><path fill="#909697" d="M44.011 3266.295c-2.135 1.442-4.833 1.702-8.877 2.274 1.208-5.333 1.575-5.476 8.877-2.274"/><path fill="#6B797B" d="M5800.502 66.047c-2.613-.354-5.304-1.99-8.162-4.862 3.593-1.36 6.47.03 8.162 4.862m-8.301-7.431c-1.52-.616-2.913-2.44-4.205-5.538 1.512.594 2.922 2.463 4.205 5.538"/><path fill="#909697" d="M84.274 3285.517c.86-1.306 2.415-1.635 5.165-2.014 1.745 5.508-1.262 4.437-5.165 2.014"/><path fill="#6B797B" d="M5817.966 86.828c-1.204-1.323-1.435-2.897-1.714-5.665 2.818.2 4.187 2.214 1.714 5.665m-6.519-11.982c-1.732.24-3.96-.55-6.332-2.55 1.85-.3 3.843.61 6.332 2.55"/><path fill="#BEBFC1" d="M212.448 46.737c-.21.73-1.012.87-3.026 1.152-1.212.144-1.323-1.746-.887-2.585 1.43-.334 2.392.226 3.913 1.433"/><path fill="#9B9A9D" d="M58.693 196.31c.556 1.138-.2 2.057-2.203 2.864-.775-1.237-.063-2.228 2.203-2.864"/><path fill="#6B797B" d="M5815.68 78.907c.361.888-.908 1.036-1.534.99-.942-.647-1.257-1.248-1.792-2.844 1.137-.817 2.198-.164 3.327 1.854"/><path fill="#9B9A9D" d="M70.971 184.302c.962.931.497 2.062-1.503 3.257-.856-.97-.32-2.011 1.503-3.257m-3.878 4.44c.817 1.075.244 2.066-1.71 2.983-.835-1.079-.269-2.076 1.71-2.983m-4.011 4c.777 1.121.15 2.107-1.905 2.912-.707-1.103-.064-2.06 1.905-2.912"/><path fill="#CBCACD" d="M5946.1 192.782c.074-.53 1.499.478 1.603.915-.73.687-1.324.413-1.602-.915"/><path fill="#ADB4B6" d="M2674.565 76.019c-30.582.065-61.168-.102-91.745.315-11.227.153-22.43 1.787-33.657 2.549-4.598.312-9.249.379-13.845.08-11.89-.776-23.76-2.6-35.642-2.628-99.727-.239-199.454-.168-301.899-1.596-5.51-3.026-8.137-5.475-11.134-6.073-4.496-.9-9.252-.632-13.898-.634q-178.405-.055-356.811-.042c-4.647 0-9.3.135-13.939.393-5.138.287-8.478 3.355-10.945 7.591-18.793.904-37.687-.894-56.354 3.718-7.413 1.83-15.583 1.376-24.828-4.506-4.252-10.511-10.895-11.13-17.804-11.142-24.664-.045-49.327.003-73.99-.1-6.656-.027-13.564.598-19.912-.926-14.5-3.479-29.11-2.957-43.75-3.035-11.332-.06-22.664-.054-33.994-.19-5.817-.07-10.395-2.17-12.061-8.352 96.652-.018 193.305-.064 289.957-.05 181.31.028 362.619.037 543.928.26 12.582.015 25.15 2.043 37.748 2.585 15.89.683 31.803.958 47.71 1.121 17.995.185 35.994.024 53.992.06 13.313.028 26.595-.364 39.759 2.92 5.7 1.422 11.92 1.015 17.905 1.016 200.64.044 401.28.061 601.92-.06 7.935-.005 15.863-1.474 23.804-2.136 7.947-.663 15.905-1.615 23.862-1.665 31.328-.197 62.658-.045 93.987-.112 15.968-.034 31.884.4 47.768-2.952 8.33-1.758 17.258-.861 25.915-.865 267.965-.11 535.93-.18 803.894-.278 15.307-.006 30.625.66 45.775-2.882 5.096-1.192 10.611-.76 15.935-.773 20.664-.047 41.328.025 63.86.138.319 4.058-2.275 7.044-6.673 7.514-4.618.493-9.288.603-13.939.67-17.937.253-35.74.39-53.693 3.077-16.3 2.438-33.223.486-49.851 1.06-11.252.39-22.464 1.865-33.703 2.73-6.627.51-13.27 1.064-19.909 1.097-25.969.131-51.94.003-77.91.09-16.611.054-33.208-.693-49.689 3.161-6.98 1.632-14.58.766-21.9.769-137.84.05-275.68.055-413.52.086-5.99.002-12.067-.411-17.94.467-3.631.543-6.953 3.165-11.308 6.204-8.674 2.773-16.742 3.342-24.151 5.853-7.996 2.71-15.556 3.452-23.328.439-11.428-4.43-23.29-4.911-35.345-4.828a5714 5714 0 0 1-79.856-.002c-11.4-.08-22.434 1.033-33.407 4.555-13.6 4.366-27.24 4.964-40.791-1.588-4.564-2.207-10.297-2.698-15.505-2.74-16.539-.13-33.387-2.2-48.991 5.783-21.16 1.886-42.26 4.141-63.257-2.009-7.533-2.206-15.556-3.62-23.386-3.763-25.28-.466-50.641-1.321-75.84.186-20.525 1.228-40.813.522-61.29.04-51.214-1.206-102.475-.483-153.715-.296-6.562.023-13.875-.131-19.527 2.557-14.153 6.73-28.525 5.351-43.05 3.687-7.248-.83-14.421-2.486-21.556-4.09-12.578-2.825-24.784-3.838-36.94 2.443-3.792 1.959-8.981 1.76-13.5 1.609-4.6-.155-9.163-1.47-16.542-3.163a662 662 0 0 0-11.5-3.347"/><path fill="#BEBFC1" d="M1506.994 51.327c3.029 6.297 7.607 8.395 13.424 8.466 11.33.136 22.662.13 33.993.19 14.641.078 29.25-.444 43.751 3.035 6.348 1.524 13.256.899 19.911.926 24.664.103 49.327.055 73.99.1 6.91.013 13.553.63 16.433 10.382-12.164 1.726-24.839 1.624-37.48 2.21-9.933.46-19.81 2.007-29.74 2.628-7.252.453-14.889 1.6-21.761-.043-15.892-3.8-31.843-2.398-47.78-2.45-4.514-.016-9.375 1.008-13.488 2.862-14.276 6.434-28.387 4.882-42.88.957-7.607-2.06-15.564-3.55-23.417-3.835-15.978-.579-31.992-.198-47.992-.14-3.994.015-8.035-.025-11.975.524-37.65 5.248-75.597 5.306-113.469 6.663-11.409.41-22.435-1.268-33.528-4.31-8.195-2.248-17.069-2.716-25.647-2.762-49.996-.27-99.995-.18-151.628-.322-21.065-.252-40.495-.394-61.786-.578-3.612-3.905-6.33-6.832-10.696-7.173-5.952-.464-11.941-.612-17.915-.617-58.514-.05-117.028.063-175.54-.16-9.24-.035-18.469-1.61-27.715-2.302-8.596-.644-17.204-1.282-25.817-1.533-23.197-.675-46.368.853-69.57-3.259-13.557-2.402-27.874-1.26-41.8-.634-16.81.755-32.979-3.35-49.432-5.217-2.205-.25-4.136-2.927-6.8-5.88 6.045-1.523 12.695-1.759 19.345-1.755 274.766.161 549.532.344 826.783 1.91 12.686 9.696 23.01 8.527 33.406 1.783 1.82.074 3.639.147 6.82.334"/><path fill="#C8C7C9" d="M5586.08 47.292c1.552 7.992-2.36 12.355-10.403 12.497-7.908.14-15.839-.176-23.726.285-10.481.614-20.925 1.852-31.395 2.695-6.557.528-13.131 1.102-19.702 1.168-17.14.172-34.283.012-51.424.12-5.866.038-12.07-.564-16.85 6.632-12.732 1.424-24.73 1.46-39.955.6-9.726-1.695-16.213-3.054-22.726-3.184-16.534-.33-33.08-.139-49.621-.093-5.951.017-11.906.117-17.852.359-5.135.209-8.592 2.984-10.621 7.632-123.125.046-246.25.094-369.375.132-3.326.001-6.67.076-9.976-.217-3.927-.349-8.243-.507-9.496-5.436-.745-2.926 3.176-5.832 8.589-6.155 5.308-.316 10.64-.306 15.962-.314 21.963-.035 43.928.173 65.887-.13 7.93-.11 15.84-1.45 23.767-2.144 7.27-.638 14.543-1.5 21.829-1.672 19.248-.455 38.484.697 57.645-3.35 8.947-1.89 18.565-.58 27.876-.788 5.343-.12 10.794-.088 14.804-6.864 65.724-1.574 130.8-1.772 195.876-1.834 83.007-.079 166.013-.047 250.887.061"/><path fill="#ADB4B6" d="M1498.785 50.256c-9.007 7.48-19.33 8.65-30.14-1.005 9.178-.807 18.964-.27 30.14 1.005"/><path fill="#CBCACD" d="M1202.637 3406.847c-2.257 2.195-5.845 4.225-9.642 4.75-5.236.724-10.629.376-15.955.375-219.102-.022-438.205-.052-657.308-.105-5.989-.001-12.047.242-17.938-.587-2.951-.415-5.598-2.994-9.059-5.99 5.984-1.47 12.645-1.608 19.305-1.606 221.156.069 442.313.127 663.47.318 8.568.008 17.135 1.31 27.127 2.845m3835.498-2.899c.22 4.023-2.475 6.965-6.854 7.313-5.956.474-11.95.624-17.927.626-161.023.057-322.046.111-483.07 0-7.864-.005-15.726-1.507-24.97-3.258 5.765-5.888 13.952-4.655 21.849-4.671 48.58-.1 97.161-.087 145.742-.09 121.119-.01 242.238-.01 365.23.08M5293.699 76.073c.135-4.718 3.592-7.493 8.727-7.702 5.946-.242 11.9-.342 17.852-.359 16.54-.046 33.087-.237 49.621.093 6.513.13 13 1.49 20.927 3.187-4.953 5.582-12.375 4.943-19.64 4.944a19105 19105 0 0 1-77.487-.163"/><path fill="#C8C7C9" d="M4751.218 76.13c-16.608-1.057-31.735 2.323-46.778-2.57 1.33-2.23 1.929-4.152 2.563-4.163 21.22-.394 42.444-.662 63.668-.722 1.496-.004 2.998 1.727 5.9 3.515-8.045 5.933-16.126 3.101-25.353 3.94"/><path fill="#BEBFC1" d="M1792.976 76.127c.541-4.389 3.88-7.457 9.02-7.744a251 251 0 0 1 13.938-.393q178.405-.013 356.811.042c4.646.002 9.402-.265 13.898.634 2.997.598 5.624 3.047 9.314 6.014-15.069 1.497-31.04 1.467-47 1.889-6.594.174-13.724-.07-19.624 2.316-10.895 4.405-21.932 4.92-33.28 4.897-30.608-.066-61.221.248-91.824-.18-9.895-.138-19.977-1.19-29.6-3.428-21.182-4.925-41.762-4.816-62.977.848-20.085 5.363-41.207 4.844-61.363.585-18.437-3.895-36.75-5.38-57.313-5.48"/><path fill="#CBCACD" d="M2675.824 76.911c1.641-.072 4.541.748 8.749 2.34-1.625.031-4.558-.708-8.749-2.34"/></svg>